<svg viewBox="35 115 443 282" xmlns="http://www.w3.org/2000/svg" data-name="Layer 2" id="Layer_2">
  <g data-name="Short Mark" id="Short_Mark">
    <path d="M46.67,328.81v-153.9h29.07v24.62c4.1-8.43,10.14-15.16,18.13-20.18,7.98-5.01,16.87-7.64,26.68-7.87h2.74c26.9,0,45.03,10.04,54.38,30.1,4.56-8.89,11.68-16.02,21.37-21.37,9.69-5.35,19.78-8.26,30.27-8.72h2.39c20.74,0,36.37,5.93,46.86,17.79,10.48,11.86,15.73,29.87,15.73,54.04v85.5h-30.1v-85.5c0-16.19-2.97-27.93-8.89-35.23-5.93-7.3-15.05-10.94-27.36-10.94-13.68,0-24.17,4.22-31.46,12.66-7.3,8.44-10.94,22.8-10.94,43.09v75.93h-30.1v-85.5c0-16.19-2.97-27.93-8.89-35.23-5.93-7.3-15.05-10.94-27.36-10.94-13.68,0-24.17,4.22-31.46,12.66-7.3,8.44-10.94,22.8-10.94,43.09v75.93h-30.1Z"></path>
    <path d="M340.57,252.89c0,15.51,4.9,28.62,14.71,39.33,9.8,10.72,22.45,16.08,37.96,16.08s27.64-5.41,36.42-16.25c8.77-10.83,13.17-24.22,13.17-40.19,0-16.87-4.33-30.49-13-40.87-8.67-10.37-20.86-15.56-36.59-15.56s-29.02,5.3-38.48,15.9c-9.46,10.6-14.19,24.45-14.19,41.56M309.45,252.89c0-24.39,6.95-44.06,20.86-59,13.91-14.93,33.74-22.4,59.51-22.4,21.21,0,38.87,7.98,53.01,23.94v-20.52h29.07v181.26c0,13.45-2.91,22.69-8.72,27.7-5.81,5.01-15.79,7.52-29.93,7.52h-110.81v-26.33h110.81c3.42,0,5.7-.63,6.84-1.88,1.14-1.25,1.71-3.59,1.71-7.01v-47.2c-13.45,14.82-29.75,22.57-48.91,23.26h-4.45c-24.17,0-43.38-7.12-57.63-21.38-14.25-14.25-21.37-33.57-21.37-57.97"></path>
    <path d="M41.1,142.45c0-5.73,1.99-10.64,5.96-14.72,3.97-4.08,8.82-6.12,14.56-6.12s10.7,1.99,14.89,5.96c3.97,4.19,5.96,9.16,5.96,14.89s-2.04,10.58-6.12,14.55c-4.08,3.97-8.99,5.96-14.72,5.96s-10.59-1.99-14.56-5.96c-3.97-3.97-5.96-8.82-5.96-14.55"></path>
  </g>
</svg>