<?xml version="1.0" encoding="UTF-8"?>
<svg id="Layer_1" data-name="Layer 1" xmlns="http://www.w3.org/2000/svg" viewBox="0 0 113.39 113.39">
  <defs>
    <linearGradient id="favicon_gradient" x1="0" y1="85" x2="113.39" y2="85" gradientUnits="userSpaceOnUse">
      <stop stop-color="#FF6863"/>
      <stop offset="0.49" stop-color="#D474E3"/>
      <stop offset="1" stop-color="#11A4FF"/>
    </linearGradient>
  </defs>
  <path fill="url(#favicon_gradient)" d="m107.93,55.97c-4.56-5.02-10.41-7.75-15.36-9.54,2.28-4.97,4.01-9.8,5.29-14.74,1.54-5.83,1.87-13.77-1.86-18.58-1.99-2.61-4.97-3.98-8.58-3.98-8.45.3-15.57,4.82-22.16,9.41-2.62,1.88-5.24,4.01-8.43,6.84-11.23-10.12-21.15-15.44-30.3-16.24h-.44c-3.6-.01-6.56,1.36-8.55,3.96-3.71,4.82-3.4,12.76-1.86,18.6,1.24,4.83,2.99,9.76,5.25,14.65-6.21,2.37-11.34,5.57-15.27,9.55-3.02,3.4-4.28,7.23-3.7,11.17.68,4.63,3.86,9.24,8.61,12.55v.03s1.28.87,1.28.87c1.53.96,3.11,1.86,4.75,2.69-.96,3.47-1.53,6.88-1.75,10.16-.07,4.42,1.08,7.83,3.42,10.22,2.2,2.24,5.36,3.41,9.11,3.41,2.31,0,4.79-.45,7.16-1.31,7.41-2.61,14.68-6.93,22.2-13.23,7.48,6.29,14.76,10.61,22.2,13.22,2.36.86,4.84,1.31,7.16,1.31,3.74,0,6.89-1.17,9.09-3.4,2.35-2.39,3.51-5.81,3.44-10.18-.1-3.23-.64-6.6-1.69-10.26,1.56-.8,3.12-1.68,4.68-2.65,5.47-3.4,9.18-8.42,9.92-13.44.57-3.93-.68-7.76-3.63-11.11m-59.57,35.19c-8.32,6.4-16,10.11-21.88,10.56-2.66-.14-4.53-1.01-5.7-2.65-1.95-2.72-2.1-7.57-.46-14.15,8,3.45,17.04,5.46,28.05,6.24m-7.75-14.79c2.62,2.99,5.12,5.69,7.57,8.15-9.8-.68-18.91-2.55-26.14-5.36,1.42-4.11,3.03-7.55,3.92-9.33,1.17-2.36,2.47-4.78,4.07-7.45,3.02,4.48,6.49,9.07,10.59,14m-12.29-28.46c3.06-.91,6.25-1.68,9.5-2.26-.72.9-4.76,6.26-6.07,8.09-1.23-1.98-2.37-3.92-3.42-5.83m56.85,0c-1.11,1.98-2.25,3.92-3.45,5.84-1.9-2.74-3.92-5.46-6.04-8.1,3.25.59,6.41,1.35,9.5,2.26m1.72-3.23l-.11-.03c-4.57-1.26-9.35-2.18-14.16-2.8l-.27-.31-.63-.75s-10.57-11.28-12.53-13.1c2.66-2.24,5.33-4.27,7.98-6.09,5.28-3.63,13.51-7.86,19.37-7.86,3.03,0,7.09.9,7.39,8.76-.3,6-2.73,13.7-7.05,22.17m-18.68-3.21c-14.42-.83-22.13-.05-22.95,0,.6-.67,8.4-8.92,11.46-11.67,2.1,1.88,9.82,9.81,11.49,11.67m-26.46-.68l-.56.65h0s-.35.44-.35.44c-5.16.59-9.96,1.5-14.3,2.7-4.31-8.46-6.73-16.11-7.01-22.18.29-7.76,4.34-8.68,7.38-8.68,5.87,0,14.08,4.23,19.35,7.86,2.67,1.84,5.39,3.89,8.04,6.13-3.17,2.92-12.54,13.08-12.54,13.08m.61,4.13c10.81-1.11,19.18-1,28.75-.01l1.57,1.96c2.54,3.18,4.94,6.48,7.15,9.81-6.52,9.85-14.65,19.5-23.11,27.37-8.43-7.86-16.56-17.51-23.1-27.37,1.46-2.17,7.37-10.07,8.75-11.76m41.1,17.46c1.58,2.67,2.89,5.09,4.05,7.44.89,1.77,2.5,5.21,3.94,9.33-7.24,2.82-16.36,4.69-26.16,5.38,2.43-2.44,4.91-5.12,7.55-8.12,4.16-5.02,7.64-9.62,10.61-14.03m-60.87-12.48c1.61,3.15,3.37,6.24,5.36,9.37-4.2,6.48-7.34,12.53-9.54,18.38-3.94-1.88-7.12-4.07-9.44-6.49-2.21-2.82-2.96-5.59-2.21-8.34,1.27-4.57,7.15-9.35,15.83-12.92m70.61,35c1.64,6.58,1.49,11.46-.45,14.16-1.17,1.62-3.02,2.5-5.65,2.66-5.88-.41-13.58-4.13-21.95-10.57,11.02-.78,20.06-2.8,28.05-6.25m-7.74-25.58c2.02-3.19,3.85-6.36,5.4-9.46,5.02,2.06,14.09,6.6,15.84,12.91.75,2.74.01,5.51-2.29,8.47l-.07.08c-2.33,2.37-5.47,4.5-9.31,6.33-1.36-3.44-2.96-6.69-4.38-9.47-1.49-2.8-3.19-5.7-5.2-8.87"/>
</svg>
